<mxfile host="Electron" modified="2024-03-04T09:43:34.701Z" agent="Mozilla/5.0 (Windows NT 10.0; Win64; x64) AppleWebKit/537.36 (KHTML, like Gecko) draw.io/23.1.5 Chrome/120.0.6099.109 Electron/28.1.0 Safari/537.36" etag="SLZ3jpLr955X2QPkihxB" version="23.1.5" type="device">
  <diagram name="Page-1" id="q7bWOxxrzYGh3gGL6_S_">
    <mxGraphModel dx="3290" dy="2516" grid="1" gridSize="10" guides="1" tooltips="1" connect="1" arrows="1" fold="1" page="1" pageScale="1" pageWidth="850" pageHeight="1100" math="0" shadow="0">
      <root>
        <mxCell id="0" />
        <mxCell id="1" parent="0" />
        <mxCell id="vdx9aR_LZm65uiy0afiX-14" value="&lt;b&gt;&lt;font style=&quot;font-size: 15px;&quot;&gt;RMS&lt;/font&gt;&lt;/b&gt;" style="rounded=0;whiteSpace=wrap;html=1;horizontal=1;verticalAlign=top;" parent="1" vertex="1">
          <mxGeometry x="120" y="-680" width="660" height="700" as="geometry" />
        </mxCell>
        <mxCell id="vdx9aR_LZm65uiy0afiX-1" value="View alarm history" style="ellipse;whiteSpace=wrap;html=1;fillColor=#f5f5f5;fontColor=#333333;strokeColor=#666666;" parent="1" vertex="1">
          <mxGeometry x="160" y="-437.5" width="120" height="65" as="geometry" />
        </mxCell>
        <mxCell id="vdx9aR_LZm65uiy0afiX-3" value="Notify Alarm on UI&amp;nbsp;" style="ellipse;whiteSpace=wrap;html=1;fillColor=#f5f5f5;fontColor=#333333;strokeColor=#666666;" parent="1" vertex="1">
          <mxGeometry x="370" y="-640" width="130" height="50" as="geometry" />
        </mxCell>
        <mxCell id="vdx9aR_LZm65uiy0afiX-4" value="Manage alarm&lt;br&gt;conditions" style="ellipse;whiteSpace=wrap;html=1;fillColor=#f5f5f5;fontColor=#333333;strokeColor=#666666;fontStyle=2" parent="1" vertex="1">
          <mxGeometry x="155" y="-280" width="130" height="70" as="geometry" />
        </mxCell>
        <mxCell id="vdx9aR_LZm65uiy0afiX-6" value="Trigger realtime &lt;br&gt;alarm&amp;nbsp;" style="ellipse;whiteSpace=wrap;html=1;fillColor=#f5f5f5;fontColor=#333333;strokeColor=#666666;" parent="1" vertex="1">
          <mxGeometry x="580" y="-600" width="130" height="70" as="geometry" />
        </mxCell>
        <mxCell id="vdx9aR_LZm65uiy0afiX-7" value="Delete alarm action" style="ellipse;whiteSpace=wrap;html=1;fillColor=#f5f5f5;fontColor=#333333;strokeColor=#666666;" parent="1" vertex="1">
          <mxGeometry x="580" y="-70" width="130" height="70" as="geometry" />
        </mxCell>
        <mxCell id="vdx9aR_LZm65uiy0afiX-8" value="Modify alarm action" style="ellipse;whiteSpace=wrap;html=1;fillColor=#f5f5f5;fontColor=#333333;strokeColor=#666666;" parent="1" vertex="1">
          <mxGeometry x="580" y="-160" width="130" height="70" as="geometry" />
        </mxCell>
        <mxCell id="vdx9aR_LZm65uiy0afiX-9" value="Create alarm action" style="ellipse;whiteSpace=wrap;html=1;fillColor=#f5f5f5;fontColor=#333333;strokeColor=#666666;" parent="1" vertex="1">
          <mxGeometry x="580" y="-250" width="130" height="70" as="geometry" />
        </mxCell>
        <mxCell id="vdx9aR_LZm65uiy0afiX-10" value="Delete alarm &lt;br&gt;condition" style="ellipse;whiteSpace=wrap;html=1;fillColor=#f5f5f5;fontColor=#333333;strokeColor=#666666;" parent="1" vertex="1">
          <mxGeometry x="370" y="-400" width="130" height="70" as="geometry" />
        </mxCell>
        <mxCell id="vdx9aR_LZm65uiy0afiX-11" value="Manage alarm actions" style="ellipse;whiteSpace=wrap;html=1;fillColor=#f5f5f5;fontColor=#333333;strokeColor=#666666;fontStyle=2" parent="1" vertex="1">
          <mxGeometry x="370" y="-130" width="130" height="70" as="geometry" />
        </mxCell>
        <mxCell id="vdx9aR_LZm65uiy0afiX-12" value="Modify alarm &lt;br&gt;condition" style="ellipse;whiteSpace=wrap;html=1;fillColor=#f5f5f5;fontColor=#333333;strokeColor=#666666;" parent="1" vertex="1">
          <mxGeometry x="370" y="-305" width="130" height="70" as="geometry" />
        </mxCell>
        <mxCell id="vdx9aR_LZm65uiy0afiX-13" value="Create new alarm condition" style="ellipse;whiteSpace=wrap;html=1;fillColor=#f5f5f5;fontColor=#333333;strokeColor=#666666;" parent="1" vertex="1">
          <mxGeometry x="370" y="-220" width="130" height="70" as="geometry" />
        </mxCell>
        <mxCell id="vdx9aR_LZm65uiy0afiX-17" value="Monitor" style="shape=umlActor;verticalLabelPosition=bottom;verticalAlign=top;html=1;outlineConnect=0;strokeWidth=2;" parent="1" vertex="1">
          <mxGeometry x="10" y="-435" width="30" height="60" as="geometry" />
        </mxCell>
        <mxCell id="vdx9aR_LZm65uiy0afiX-18" value="Administrator" style="shape=umlActor;verticalLabelPosition=bottom;verticalAlign=top;html=1;outlineConnect=0;strokeWidth=2;" parent="1" vertex="1">
          <mxGeometry x="10" y="-275" width="30" height="60" as="geometry" />
        </mxCell>
        <mxCell id="vdx9aR_LZm65uiy0afiX-24" value="" style="endArrow=none;html=1;rounded=0;entryX=0;entryY=0.5;entryDx=0;entryDy=0;" parent="1" source="vdx9aR_LZm65uiy0afiX-17" target="vdx9aR_LZm65uiy0afiX-1" edge="1">
          <mxGeometry width="50" height="50" relative="1" as="geometry">
            <mxPoint x="230" y="-260" as="sourcePoint" />
            <mxPoint x="280" y="-310" as="targetPoint" />
          </mxGeometry>
        </mxCell>
        <mxCell id="vdx9aR_LZm65uiy0afiX-28" value="" style="endArrow=none;html=1;rounded=0;entryX=0;entryY=0.5;entryDx=0;entryDy=0;" parent="1" source="vdx9aR_LZm65uiy0afiX-18" target="vdx9aR_LZm65uiy0afiX-4" edge="1">
          <mxGeometry width="50" height="50" relative="1" as="geometry">
            <mxPoint x="210" y="-180" as="sourcePoint" />
            <mxPoint x="260" y="-230" as="targetPoint" />
          </mxGeometry>
        </mxCell>
        <mxCell id="vdx9aR_LZm65uiy0afiX-29" value="" style="endArrow=block;endSize=16;endFill=0;html=1;rounded=0;" parent="1" source="vdx9aR_LZm65uiy0afiX-18" edge="1">
          <mxGeometry width="160" relative="1" as="geometry">
            <mxPoint x="160" y="-210" as="sourcePoint" />
            <mxPoint x="25" y="-350" as="targetPoint" />
          </mxGeometry>
        </mxCell>
        <mxCell id="vdx9aR_LZm65uiy0afiX-31" value="" style="endArrow=blockThin;endSize=16;endFill=0;html=1;rounded=0;exitX=0;exitY=0.5;exitDx=0;exitDy=0;entryX=0.808;entryY=0.143;entryDx=0;entryDy=0;entryPerimeter=0;" parent="1" source="vdx9aR_LZm65uiy0afiX-10" target="vdx9aR_LZm65uiy0afiX-4" edge="1">
          <mxGeometry width="160" relative="1" as="geometry">
            <mxPoint x="350" y="-338" as="sourcePoint" />
            <mxPoint x="490" y="-370" as="targetPoint" />
          </mxGeometry>
        </mxCell>
        <mxCell id="vdx9aR_LZm65uiy0afiX-33" value="" style="endArrow=blockThin;endSize=16;endFill=0;html=1;rounded=0;exitX=0;exitY=0.5;exitDx=0;exitDy=0;entryX=0.974;entryY=0.298;entryDx=0;entryDy=0;entryPerimeter=0;" parent="1" source="vdx9aR_LZm65uiy0afiX-12" target="vdx9aR_LZm65uiy0afiX-4" edge="1">
          <mxGeometry width="160" relative="1" as="geometry">
            <mxPoint x="365" y="-415" as="sourcePoint" />
            <mxPoint x="250" y="-230" as="targetPoint" />
          </mxGeometry>
        </mxCell>
        <mxCell id="vdx9aR_LZm65uiy0afiX-34" value="" style="endArrow=blockThin;endSize=16;endFill=0;html=1;rounded=0;exitX=0;exitY=0.5;exitDx=0;exitDy=0;entryX=0.987;entryY=0.6;entryDx=0;entryDy=0;entryPerimeter=0;" parent="1" source="vdx9aR_LZm65uiy0afiX-13" target="vdx9aR_LZm65uiy0afiX-4" edge="1">
          <mxGeometry width="160" relative="1" as="geometry">
            <mxPoint x="365" y="-315" as="sourcePoint" />
            <mxPoint x="264" y="-227" as="targetPoint" />
          </mxGeometry>
        </mxCell>
        <mxCell id="vdx9aR_LZm65uiy0afiX-35" value="" style="endArrow=blockThin;endSize=16;endFill=0;html=1;rounded=0;exitX=0;exitY=0.5;exitDx=0;exitDy=0;" parent="1" source="vdx9aR_LZm65uiy0afiX-11" target="vdx9aR_LZm65uiy0afiX-4" edge="1">
          <mxGeometry width="160" relative="1" as="geometry">
            <mxPoint x="375" y="-305" as="sourcePoint" />
            <mxPoint x="274" y="-217" as="targetPoint" />
          </mxGeometry>
        </mxCell>
        <mxCell id="vdx9aR_LZm65uiy0afiX-42" value="Stream all &lt;br&gt;unresolved alarms" style="ellipse;whiteSpace=wrap;html=1;fillColor=#f5f5f5;fontColor=#333333;strokeColor=#666666;" parent="1" vertex="1">
          <mxGeometry x="580" y="-420" width="130" height="70" as="geometry" />
        </mxCell>
        <mxCell id="O6qfYlx07FazeDkOTpJF-3" value="Notify Alarm via Email" style="ellipse;whiteSpace=wrap;html=1;fillColor=#f5f5f5;fontColor=#333333;strokeColor=#666666;" vertex="1" parent="1">
          <mxGeometry x="370" y="-550" width="130" height="50" as="geometry" />
        </mxCell>
        <mxCell id="O6qfYlx07FazeDkOTpJF-5" value="&amp;lt;&amp;lt;include&amp;gt;&amp;gt;" style="html=1;verticalAlign=bottom;labelBackgroundColor=none;endArrow=open;endFill=0;dashed=1;rounded=0;entryX=1;entryY=0.5;entryDx=0;entryDy=0;exitX=0;exitY=0.5;exitDx=0;exitDy=0;" edge="1" parent="1" source="vdx9aR_LZm65uiy0afiX-6" target="vdx9aR_LZm65uiy0afiX-3">
          <mxGeometry width="160" relative="1" as="geometry">
            <mxPoint x="540" y="-570" as="sourcePoint" />
            <mxPoint x="300" y="-240" as="targetPoint" />
          </mxGeometry>
        </mxCell>
        <mxCell id="O6qfYlx07FazeDkOTpJF-6" value="&amp;lt;&amp;lt;include&amp;gt;&amp;gt;" style="html=1;verticalAlign=bottom;labelBackgroundColor=none;endArrow=open;endFill=0;dashed=1;rounded=0;entryX=1;entryY=0.5;entryDx=0;entryDy=0;exitX=0;exitY=0.5;exitDx=0;exitDy=0;" edge="1" parent="1" source="vdx9aR_LZm65uiy0afiX-6" target="O6qfYlx07FazeDkOTpJF-3">
          <mxGeometry width="160" relative="1" as="geometry">
            <mxPoint x="550" y="-540" as="sourcePoint" />
            <mxPoint x="110" y="-275" as="targetPoint" />
          </mxGeometry>
        </mxCell>
        <mxCell id="O6qfYlx07FazeDkOTpJF-9" value="&amp;lt;&amp;lt;extend&amp;gt;&amp;gt;" style="html=1;verticalAlign=bottom;labelBackgroundColor=none;endArrow=open;endFill=0;dashed=1;rounded=0;entryX=1;entryY=0.5;entryDx=0;entryDy=0;exitX=0;exitY=0.5;exitDx=0;exitDy=0;" edge="1" parent="1" source="vdx9aR_LZm65uiy0afiX-9" target="vdx9aR_LZm65uiy0afiX-13">
          <mxGeometry width="160" relative="1" as="geometry">
            <mxPoint x="390" y="-330" as="sourcePoint" />
            <mxPoint x="550" y="-330" as="targetPoint" />
          </mxGeometry>
        </mxCell>
        <mxCell id="O6qfYlx07FazeDkOTpJF-10" value="Resolve alarm" style="ellipse;whiteSpace=wrap;html=1;fillColor=#f5f5f5;fontColor=#333333;strokeColor=#666666;" vertex="1" parent="1">
          <mxGeometry x="580" y="-505" width="130" height="70" as="geometry" />
        </mxCell>
        <mxCell id="O6qfYlx07FazeDkOTpJF-25" style="rounded=0;orthogonalLoop=1;jettySize=auto;html=1;endArrow=none;endFill=0;" edge="1" parent="1" source="O6qfYlx07FazeDkOTpJF-17" target="vdx9aR_LZm65uiy0afiX-6">
          <mxGeometry relative="1" as="geometry" />
        </mxCell>
        <mxCell id="O6qfYlx07FazeDkOTpJF-17" value="Timed Event" style="shape=image;verticalLabelPosition=bottom;labelBackgroundColor=default;verticalAlign=top;aspect=fixed;imageAspect=0;image=data:image/png,iVBORw0KGgoAAAANSUhEUgAAAGQAAABkCAYAAABw4pVUAAAAAXNSR0IArs4c6QAACbZJREFUeAHtnVXoPVUQx792vvwVBAPsbgRRsBC7xU7sQh988kGxxUQRsQPsFtEHH/6IHQ9iPihiN3Z37Ud2/Q/zP/du3I2z+7sDl929e87ZiZNzZuZIU5hyYMAcmEfSAgOmr1ek7SPpe0nfSNq7V5gPFNlPJf2T/j4ZKI3/kbWIpA0l7SfpdEl3SHpO0quS3pb0taTf0h/370h6TdKzkm6VdJqkfSVtIGmhBhmVCSO7NvipdoueX9JGkk6RNFvSr6bmZcRWvf4h6QVJF0japmYBeZza5VrNX0MIO0m6U9LPNQrAM8k/fyvpBklbSZp3Qpp82RMW1032lSVdKsn2v56wtp4/SGZI50lauiIrPJ4Vi+km2zqSbk/69z8LtoY3kzHgQUkXSTpK0haSKGNFSbPSqSbTTe75j3fU+mMkXZJ0gQ9Lerfgt+gir5a0UknW9FIga6aM/TuHOQzM10k6cIIaG+Ln8pIOS4R2cyIsZkKeifaZ8eYWScuGCgr8Z/NyHzUsmmB3Zs4AzfwdBjDYssBqGhgzNksEfm26fvAMzZ5/ShAB97wZWpY+uzaNf+Xy95D0/pjayKyHhdSClb8wecbFknHs2HQanTHUX9+QtOWYT/n0Y5J284r1w/VjBPFEsp7YvhvURn6V2d5B6TrGM5hnxrxzJJHOg0/v33f6zFjBws0jyfNb6RS3UwRzPk53Rov5cgQNT0tiPLLgabXvOr1nVfxjgJBfkv/OSBZlC3eKXbmPL5lOLv4K0POVpM1NcVEK5ERJIeRfShZ9qxvk+3a79YhZGZUMpSIQnUDODiAFklf1rFWk/J3rspSkRwI0UgFPDvw/VwFt/nFFACFUIHRfQwKm4yg489ZRVMTOgFmHb66sKWz/2hlyDX34UEm/B+i2fGjo0+OLPT6AFHqp9cdnG8RbFrBsSFkh2PvWiaQ78gP4x6kuqU1kLBO4LwtomVHV+HImfS6Lx0TpVwvUDlTZbAK1DZ5xZb//YQPCqFIxyuL9f3rWES87IhjAuxozZrxAQuqQLmdTkwpkxz53WSgKPQNYZ3QJHp8ucWn126jQ/SYP+iqUiF3CjBUIhgGWeNQGMahDLE7czwhgVuWtP1AUxgAzUiDsZ1vCUaHHorW1eMXcQthDqWUnFIMBr7thMRULxC6Q+ZI9oIMT+wAMNWrhG9Yhlmh2+mICi1tsLYQ9+9cN/x6flHGrBEx1Ytt2jVkgGxthZHhilVkZMGLLCuKKQUJsYPHjPjZ43vHwmqoIMgh95gqL0cw+doFgW2ZxREOMlUtpYACyBbGHnGebVPojNWSwOHIfG2BR+ZHj5f5VkMTw2RJ7ZZVCWshjcYxRILDgQsfL+8vyhTUGFnuW2E3KFtJSeotjrAJhtmXxRDteSuWEobItgA2cWMHiGatAWIt84Xi6bRmGnuUyY/gcK/RBIPAOA2+L68VlGPqUy3xAmcwtp7VExtpCYAn2WxZXpsOFgL4Nnz2buaoTS6EPTpjI4hmzQJZxPEVZW8jAHAdLSyQ6mJjB4hqzQOChH0cKrdqZI1si0fTGDBbX2AXyqOPtIUUYyz6HJZI5dMxgcY1dIJc53p5bhLFeu3tkkUwdpumTQI5wArmrCN+ecZlwsIwZ+iQQrOgtvoW2MoiCYDOtHbM0HK7gHTOs5fDFTS4XvGWJ9xTKLaDlBLbyxC4QXBosvp8X4ZV348KLKFZYwREIsfwXKyzu8P2hCKJ+UVho8VKk4JrTEAXCVx4Ewly/rNN/zaiNLI49JttC8IXPhb4I5F5HnCX0nlwqu0lA5bZ4slrPBTaibKYlcnN0kwCnIIunvYeGGIHu3+JJa86Fvgzq4wSCa0SM4Me8QtsaftqLXVZswALLOwvZmnd3bAin+KzrWsgrRfCMfWGYJwwG+uWKENpBGr/xxzZHLnjVCeGQYoGQMGgpdF/fSaJlxCoMeEi4KNuSCUGYC7j92kyxKBcPD3RTmLgel0tRPAmI3WV5e2oR1Ag2aTPFoH4fgjDgPYHULG8L2bnhuGkzdb1BNaqb4v++AV4DlrfrFSEgtIXL9mMXMCRhMLZZYbAoLOzS4Y0cMIdsG4bSTWV8Y3fQCuSx7EWRqzcDwvO2TRiaMODdTU4gTJ4Kg58vs3qvxfunAAZD6qYycuGdD3NYyq8/ZEq6aVZ6g9chCgN2eVNS1O6ltehtG1sPsZvK6i4+IXb8IPpqaWjTHWHIwqAl+H2bUna9meTYTPEhwLNwdlmaOq4Y5nlFIc99XGeE+OEX2kRMwvi6ErTl0kag4qxJD0kYDObEm8xo41rKyNpLja1QthltgTv4RDU9czxF33RTeaTv4nhH3F8caSeC21yhT05U2vjMXcTbGo/RZG85VMZW5kqDuUcBuywfOGBnn2j6PBcHdnfCoCsmwHQt8IArnKOGSrlk1YJFfwoJRU66r070Q8FnUK9MIcwBjKhtV4UlzxrhpNX/Pd99hPBMtX+kOnrR5KRb8pGTClm5l6Ug1AwxiJh2XXM4icrJT3PRYVUKFDCn2NF3fqCiWVYOFTH6M719E4pHydS3UcAj1/aP3FeKTNAolu0XTggmzxfOsmocQs2S8SR2P5ImGcPJO/DACqTVeJSrpmY3FgHMcIa2sCsiRIzfOGHU8gL1eusTHiwmvFIQxVmsludFmFs2DRb4/rQ31CN7li2orvTYRNmawT0a4pnQUjCxDYUpP6ku5lYtx++/IxQsCYc8pjBmYNDtKyNa6yggdKALg1wX1ipNM4TZlB/AEQw8iApQn/sawzMaThaVfQdml5ePoJEg01HCCYGBHqFgdt/6rKNGDo06BpABPHrb4r0kMe3zrYVmzsFhfVK10LLRQ3ndFLQRO7Gz2VTZykZMeH/GSCYgvIZ2LVtgB+lRE3lvsowG9FVowHsF4/pcCMMxCMG0ZYBXlHmcLeV3+jJBcO39mLjbmJoGgS+mx+t1GfGUb2Md4jW1VhC07MYVhUVrzaTpGDdiO74bmohXxcyJiAqW+fae4/FIg9P/4ICxhRCpXuViGcD9e5JuTIPY1+kKwWH1WKFj+OxtbT0O4Mi2a+/Giiq1hiAs+Nd5EyPPlOwZR5eHUpumo9NzzXF2QW82K7WTxUKQe/7jHQbj+PThRobnEnYAWXnjruDEOFGbQUIVBnWVB+bBMK+gG8ewpt6hGAWXmaQcHSl3TCs5dYFWEzr6uykhsF7im9tNYt45kqqBvMCmmMEWVczsEXqjqgKiO+KEB1QdTG+7nNn1VlysZzhbF0Pv09Ia/XS68GRcIK4JZjb8uOc/FqWkofbjekxeypgKoLfVYIr4lANTDkw5MOVAHgf+BYocnx0Hu5crAAAAAElFTkSuQmCC;" vertex="1" parent="1">
          <mxGeometry x="840" y="-487.5" width="50" height="50" as="geometry" />
        </mxCell>
        <mxCell id="O6qfYlx07FazeDkOTpJF-22" value="" style="endArrow=blockThin;endSize=16;endFill=0;html=1;rounded=0;exitX=0;exitY=0.5;exitDx=0;exitDy=0;entryX=1;entryY=0;entryDx=0;entryDy=0;" edge="1" parent="1" source="vdx9aR_LZm65uiy0afiX-9" target="vdx9aR_LZm65uiy0afiX-11">
          <mxGeometry width="160" relative="1" as="geometry">
            <mxPoint x="630" y="-190" as="sourcePoint" />
            <mxPoint x="500" y="-65" as="targetPoint" />
          </mxGeometry>
        </mxCell>
        <mxCell id="O6qfYlx07FazeDkOTpJF-23" value="" style="endArrow=blockThin;endSize=16;endFill=0;html=1;rounded=0;exitX=0;exitY=0.5;exitDx=0;exitDy=0;entryX=1;entryY=0.5;entryDx=0;entryDy=0;" edge="1" parent="1" source="vdx9aR_LZm65uiy0afiX-8" target="vdx9aR_LZm65uiy0afiX-11">
          <mxGeometry width="160" relative="1" as="geometry">
            <mxPoint x="590" y="-245" as="sourcePoint" />
            <mxPoint x="510" y="-85" as="targetPoint" />
          </mxGeometry>
        </mxCell>
        <mxCell id="O6qfYlx07FazeDkOTpJF-24" value="" style="endArrow=blockThin;endSize=16;endFill=0;html=1;rounded=0;exitX=0;exitY=0.5;exitDx=0;exitDy=0;entryX=1;entryY=1;entryDx=0;entryDy=0;" edge="1" parent="1" source="vdx9aR_LZm65uiy0afiX-7" target="vdx9aR_LZm65uiy0afiX-11">
          <mxGeometry width="160" relative="1" as="geometry">
            <mxPoint x="590" y="-145" as="sourcePoint" />
            <mxPoint x="510" y="-85" as="targetPoint" />
          </mxGeometry>
        </mxCell>
        <mxCell id="O6qfYlx07FazeDkOTpJF-26" style="rounded=0;orthogonalLoop=1;jettySize=auto;html=1;endArrow=none;endFill=0;entryX=1;entryY=0.5;entryDx=0;entryDy=0;exitX=0;exitY=0.5;exitDx=0;exitDy=0;" edge="1" parent="1" source="O6qfYlx07FazeDkOTpJF-17" target="O6qfYlx07FazeDkOTpJF-10">
          <mxGeometry relative="1" as="geometry">
            <mxPoint x="830" y="-546" as="sourcePoint" />
            <mxPoint x="720" y="-552" as="targetPoint" />
          </mxGeometry>
        </mxCell>
        <mxCell id="O6qfYlx07FazeDkOTpJF-27" style="rounded=0;orthogonalLoop=1;jettySize=auto;html=1;endArrow=none;endFill=0;entryX=1;entryY=0.5;entryDx=0;entryDy=0;exitX=0;exitY=0.75;exitDx=0;exitDy=0;" edge="1" parent="1" source="O6qfYlx07FazeDkOTpJF-17" target="vdx9aR_LZm65uiy0afiX-42">
          <mxGeometry relative="1" as="geometry">
            <mxPoint x="830" y="-545" as="sourcePoint" />
            <mxPoint x="720" y="-460" as="targetPoint" />
          </mxGeometry>
        </mxCell>
      </root>
    </mxGraphModel>
  </diagram>
</mxfile>
